<svg xmlns="http://www.w3.org/2000/svg" viewBox="0 0 24 24" fill="none">
  <rect width="24" height="24" rx="12" fill="#0284c7"/>
  <path d="M12 15C13.6569 15 15 13.6569 15 12C15 10.3431 13.6569 9 12 9C10.3431 9 9 10.3431 9 12C9 13.6569 10.3431 15 12 15Z" fill="white"/>
  <path d="M19.4 13C19.2669 13.6834 19.0224 14.3334 18.6872 14.9217C18.3519 15.5101 17.9308 16.0292 17.4413 16.4533C16.9517 16.8775 16.4012 17.2006 15.8159 17.4153C15.2306 17.6301 14.619 17.7329 14 17.7226C13.3866 17.7329 12.7779 17.6301 12.1953 17.4153C11.6126 17.2006 11.0644 16.8775 10.5764 16.4533C10.0884 16.0292 9.66825 15.5101 9.33251 14.9217C8.99678 14.3334 8.75235 13.6834 8.61914 13" stroke="white" strokeWidth="2" strokeLinecap="round" strokeLinejoin="round"/>
  <path d="M3 10.5V13.5C3 17.6421 6.35786 21 10.5 21H13.5C17.6421 21 21 17.6421 21 13.5V10.5C21 6.35786 17.6421 3 13.5 3H10.5C6.35786 3 3 6.35786 3 10.5Z" stroke="white" strokeWidth="2" strokeLinecap="round" strokeLinejoin="round"/>
</svg>